<svg xmlns="http://www.w3.org/2000/svg" xmlns:xlink="http://www.w3.org/1999/xlink" width="758.375" height="777.197" viewBox="0 0 758.375 777.197">
  <defs>
    <linearGradient id="linear-gradient" x1="0.207" y1="0.138" x2="1.059" y2="1.293" gradientUnits="objectBoundingBox">
      <stop offset="0" stop-color="#a865ec"/>
      <stop offset="1" stop-color="#315ff2"/>
    </linearGradient>
  </defs>
  <g id="document" transform="translate(735.015 753.257)">
    <path id="패스_4" data-name="패스 4" d="M-735.015-355.248c0,209.763,169.424,379.188,379.187,379.188,208.15,0,377.574-169.424,379.188-377.574a94.725,94.725,0,0,1-95.2,91.973c-51.634,0-95.2-41.953-95.2-95.2V-469.27c0-156.516-127.471-283.988-283.988-283.988S-735.015-625.786-735.015-469.27Zm141.86-165.726c33.263,0,60.571,27.1,60.366,60.366v84.594a60.6,60.6,0,0,1-60.366,60.366,60.464,60.464,0,0,1-60.366-60.366v-84.594A60.464,60.464,0,0,1-593.155-520.974Zm176.961,0c33.263,0,60.571,27.1,60.366,60.366v84.594a60.6,60.6,0,0,1-60.366,60.366,60.464,60.464,0,0,1-60.366-60.366v-84.594A60.464,60.464,0,0,1-416.195-520.974Z" fill="url(#linear-gradient)"/>
  </g>
</svg>
